<?xml version="1.0" encoding="UTF-8" standalone="no"?>
<!DOCTYPE svg PUBLIC "-//W3C//DTD SVG 1.1//EN" "http://www.w3.org/Graphics/SVG/1.1/DTD/svg11.dtd">
<svg xmlns="http://www.w3.org/2000/svg" version="1.1" viewBox="0.00 0.00 39.00 39.00">
<path fill="#2690ce" d="
  M 16.80 0.00
  L 22.31 0.00
  Q 35.68 3.00 39.00 16.31
  L 39.00 22.96
  L 37.82 26.27
  A 0.65 0.65 0.0 0 1 36.99 26.66
  L 36.75 26.57
  Q 36.03 26.31 36.29 25.58
  Q 38.79 18.58 35.61 11.77
  C 29.21 -1.94 8.99 -1.47 3.16 12.45
  C -0.66 21.59 3.34 32.21 12.61 35.97
  Q 20.80 39.29 29.17 34.68
  A 0.45 0.44 -30.2 0 1 29.76 34.83
  L 29.98 35.18
  A 0.75 0.75 0.0 0 1 29.62 36.29
  L 22.63 39.00
  L 16.26 39.00
  Q 3.07 35.71 0.00 22.35
  L 0.00 16.57
  Q 3.32 2.98 16.80 0.00
  Z"
/>
<path fill="#2690ce" d="
  M 8.99 19.79
  L 17.28 27.95
  A 0.32 0.32 0.0 0 1 17.36 28.29
  L 17.00 29.25
  A 0.32 0.32 0.0 0 1 16.48 29.37
  L 6.81 19.77
  A 0.32 0.32 0.0 0 1 6.81 19.31
  L 16.42 9.73
  A 0.32 0.32 0.0 0 1 16.92 9.79
  L 17.43 10.62
  A 0.32 0.32 0.0 0 1 17.38 11.02
  L 8.99 19.33
  A 0.32 0.32 0.0 0 0 8.99 19.79
  Z"
/>
<rect fill="#2690ce" x="11.02" y="18.72" width="21.10" height="1.64" rx="0.67"/>
</svg>
