<?xml version="1.0" encoding="UTF-8" standalone="no"?>
<!DOCTYPE svg PUBLIC "-//W3C//DTD SVG 1.1//EN" "http://www.w3.org/Graphics/SVG/1.1/DTD/svg11.dtd">
<svg xmlns="http://www.w3.org/2000/svg" version="1.1" viewBox="0.00 0.00 39.00 39.00">
<path fill="#2590cb" d="
  M 16.81 0.00
  L 22.32 0.00
  Q 35.69 3.00 39.00 16.32
  L 39.00 22.94
  Q 35.57 35.97 22.68 39.00
  L 16.31 39.00
  L 9.16 36.09
  A 0.43 0.43 0.0 0 1 8.97 35.45
  L 9.19 35.12
  Q 9.69 34.42 10.42 34.87
  C 15.76 38.17 23.30 38.14 28.63 34.91
  C 43.71 25.79 38.23 2.87 20.46 1.77
  C 7.28 0.95 -1.39 13.81 2.85 25.75
  Q 3.05 26.31 2.48 26.50
  L 2.06 26.63
  Q 1.39 26.86 1.18 26.18
  L 0.00 22.36
  L 0.00 16.55
  Q 3.32 2.97 16.81 0.00
  Z"
/>
<path fill="#2590cb" d="
  M 21.61 10.45
  L 22.31 9.82
  A 0.33 0.33 0.0 0 1 22.76 9.83
  L 32.26 19.34
  A 0.33 0.33 0.0 0 1 32.26 19.80
  L 22.71 29.31
  A 0.33 0.33 0.0 0 1 22.23 29.29
  L 21.61 28.61
  A 0.33 0.33 0.0 0 1 21.62 28.16
  L 30.07 19.78
  A 0.33 0.33 0.0 0 0 30.07 19.32
  L 21.60 10.93
  A 0.33 0.33 0.0 0 1 21.61 10.45
  Z"
/>
<rect fill="#2590cb" x="6.94" y="18.72" width="21.10" height="1.64" rx="0.72"/>
</svg>
